<svg width="84" height="88" viewBox="0 0 84 88" fill="none" xmlns="http://www.w3.org/2000/svg">
<path d="M82.3206 38.9818C83.0492 40.2286 83.0492 41.7714 82.3206 43.0182L63.9081 74.5253C63.1909 75.7526 61.8762 76.507 60.4546 76.507L23.5454 76.507C22.1238 76.507 20.8091 75.7526 20.0919 74.5253L1.67942 43.0182C0.950789 41.7714 0.950789 40.2286 1.67942 38.9818L20.0919 7.47474C20.8091 6.24741 22.1238 5.49296 23.5454 5.49296L60.4546 5.49296C61.8762 5.49296 63.1909 6.24742 63.9081 7.47475L82.3206 38.9818Z" fill="#FFD744"/>
<path d="M38.5523 57.16C37.6563 49.352 39.7683 45.064 43.3523 40.008L40.0243 38.792C35.1603 42.952 32.6643 49.8 33.3683 57.16H38.5523ZM47.8963 57.16C47.0643 49.352 49.1123 45.064 52.6963 40.008L49.4323 38.792C44.5043 42.952 42.0083 49.8 42.7763 57.16H47.8963Z" fill="#363636"/>
</svg>
