<svg width="122" height="122" viewBox="0 0 122 122" fill="none" xmlns="http://www.w3.org/2000/svg">
<path d="M111.255 35.0298C110.652 32.7905 109.472 30.7487 107.832 29.1089C106.192 27.4691 104.15 26.2888 101.911 25.686C93.6644 23.4541 60.5262 23.4541 60.5262 23.4541C60.5262 23.4541 27.3881 23.4541 19.1414 25.686C16.902 26.2888 14.8603 27.4691 13.2205 29.1089C11.5807 30.7487 10.4004 32.7905 9.79762 35.0298C8.25778 43.4402 7.51053 51.9765 7.56571 60.5265C7.51053 69.0765 8.25778 77.6128 9.79762 86.0232C10.4004 88.2625 11.5807 90.3043 13.2205 91.9441C14.8603 93.5839 16.902 94.7642 19.1414 95.367C27.3881 97.5989 60.5262 97.5989 60.5262 97.5989C60.5262 97.5989 93.6644 97.5989 101.911 95.367C104.15 94.7642 106.192 93.5839 107.832 91.9441C109.472 90.3043 110.652 88.2625 111.255 86.0232C112.795 77.6128 113.542 69.0765 113.487 60.5265C113.542 51.9765 112.795 43.4402 111.255 35.0298ZM49.9341 76.4147V44.6383L77.4358 60.5265L49.9341 76.4147Z" fill="#363636"/>
</svg>
